<svg width="164" height="118" viewBox="0 0 164 118" fill="none" xmlns="http://www.w3.org/2000/svg">
<path d="M163.997 118C132.569 118 107 91.5333 107 58.9971C107 26.4609 132.569 0 163.997 0C195.425 0 221 26.4666 221 58.9971C221 91.5276 195.431 118 163.997 118ZM163.997 1.13982C133.175 1.13982 108.101 27.0936 108.101 58.9971C108.101 90.9007 133.175 116.86 163.997 116.86C194.819 116.86 219.899 90.9064 219.899 58.9971C219.899 27.0936 194.819 1.13982 163.997 1.13982Z" fill="#EEFFFF"/>
<path d="M142.904 30.06L137.904 34.7343L132.902 30.06L127.902 34.7343L122.902 30.06L118.492 34.1829L114.079 30.06L109.08 34.7343L104.077 30.06L99.0769 34.7343L94.0771 30.06L89.1138 34.7L89.6673 35.22L94.0771 31.0971L99.0769 35.7714L104.077 31.0971L109.08 35.7714L114.079 31.0971L118.492 35.2229L122.902 31.0971L127.902 35.7714L132.902 31.0971L137.904 35.7714L142.904 31.0971L147.317 35.22L147.867 34.7L142.904 30.06Z" fill="#EEFFFF"/>
<path d="M2.67377 15.0403L9.84978 7.86432C8.57578 8.59232 7.39274 9.46332 6.3224 10.4513L5.26078 11.513C4.27277 12.5833 3.40177 13.7663 2.67377 15.0403Z" fill="#EEFFFF"/>
<path d="M0.532959 20.743L15.5523 5.72366C15.1363 5.806 14.729 5.90566 14.3216 6.014L0.823284 19.5123C0.71495 19.9197 0.615292 20.327 0.532959 20.743Z" fill="#EEFFFF"/>
<path d="M0.157898 24.5607C0.157898 24.5997 0.157898 24.643 0.157898 24.682L19.4976 5.34665C19.4586 5.34665 19.4152 5.34665 19.3762 5.34665C19.0946 5.34665 18.8172 5.35532 18.5442 5.36398L0.179559 23.7287C0.166559 24.006 0.157898 24.2833 0.157898 24.5607Z" fill="#EEFFFF"/>
<path d="M0.457886 27.9493L22.7616 5.64566C22.4929 5.59799 22.2199 5.55466 21.9512 5.51999L0.332214 27.139C0.366881 27.4077 0.410218 27.6807 0.457886 27.9493Z" fill="#EEFFFF"/>
<path d="M1.17875 30.779L25.5841 6.37365C25.3501 6.29132 25.1117 6.21765 24.8734 6.14832L0.95343 30.0683C1.0271 30.3067 1.10075 30.545 1.17875 30.779Z" fill="#EEFFFF"/>
<path d="M2.24029 33.2793L28.0886 7.43099C27.8806 7.32699 27.6683 7.22299 27.456 7.12332L1.93262 32.6467C2.03228 32.859 2.13196 33.0713 2.24029 33.2793Z" fill="#EEFFFF"/>
<path d="M3.57506 35.5067L30.3161 8.76567C30.1297 8.63567 29.9434 8.51001 29.7527 8.38867L3.19806 34.9433C3.31939 35.134 3.44505 35.3203 3.57506 35.5067Z" fill="#EEFFFF"/>
<path d="M5.15239 37.4913L32.2964 10.3473C32.1317 10.2 31.9671 10.0527 31.7981 9.90967L4.71472 36.993C4.85772 37.1577 5.00505 37.3267 5.15239 37.4913Z" fill="#EEFFFF"/>
<path d="M6.96808 39.2377L34.0471 12.1587C33.9041 11.9897 33.7568 11.8207 33.6095 11.656L6.46545 38.8C6.63012 38.9473 6.79474 39.0947 6.96808 39.2377Z" fill="#EEFFFF"/>
<path d="M9.01328 40.75L35.5593 14.204C35.4379 14.0134 35.3123 13.827 35.1823 13.6407L8.44995 40.3774C8.63628 40.503 8.82262 40.6287 9.01328 40.75Z" fill="#EEFFFF"/>
<path d="M11.3144 42.011L36.8161 16.5093C36.7164 16.297 36.6167 16.0846 36.5084 15.8766L10.6774 41.7076C10.8897 41.8116 11.102 41.9113 11.3144 42.011Z" fill="#EEFFFF"/>
<path d="M13.9014 42.986L37.7954 19.092C37.7261 18.8537 37.6481 18.6153 37.5701 18.3813L13.1907 42.7606C13.4247 42.843 13.6631 42.9167 13.9014 42.986Z" fill="#EEFFFF"/>
<path d="M16.8393 43.61L38.4193 22.03C38.3846 21.757 38.3413 21.484 38.2936 21.2153L16.0247 43.4843C16.2933 43.532 16.5663 43.5753 16.8393 43.61Z" fill="#EEFFFF"/>
<path d="M19.37 43.779C19.669 43.779 19.9637 43.7703 20.254 43.7573L38.5623 25.449C38.5753 25.1543 38.584 24.8597 38.584 24.565C38.584 24.539 38.584 24.5173 38.584 24.4913L19.2963 43.779C19.318 43.7747 19.344 43.779 19.37 43.779Z" fill="#EEFFFF"/>
<path d="M24.4835 43.0857L37.8951 29.674C38.0078 29.2667 38.1074 28.855 38.1941 28.439L23.2484 43.3847C23.6644 43.298 24.0761 43.1983 24.4835 43.0857Z" fill="#EEFFFF"/>
<path d="M35.9928 34.198L29.0031 41.1877C31.8978 39.5063 34.3115 37.0927 35.9928 34.198Z" fill="#EEFFFF"/>
<path d="M145.555 75.406L139.364 81.5996" stroke="#EEFFFF" stroke-miterlimit="10"/>
<path d="M145.555 81.5996L139.364 75.406" stroke="#EEFFFF" stroke-miterlimit="10"/>
<path d="M145.555 66.406L139.364 72.5996" stroke="#EEFFFF" stroke-miterlimit="10"/>
<path d="M145.555 72.5996L139.364 66.406" stroke="#EEFFFF" stroke-miterlimit="10"/>
<path d="M145.555 57.406L139.364 63.5996" stroke="#EEFFFF" stroke-miterlimit="10"/>
<path d="M145.555 63.5996L139.364 57.406" stroke="#EEFFFF" stroke-miterlimit="10"/>
</svg>
