<svg width="1047" height="441" viewBox="0 0 1047 441" fill="none" xmlns="http://www.w3.org/2000/svg">
<path d="M998.26 439.196C890.595 439.196 803 351.005 803 242.588C803 134.172 890.595 46 998.26 46C1105.92 46 1193.54 134.191 1193.54 242.588C1193.54 350.986 1105.94 439.196 998.26 439.196ZM998.26 49.7981C892.67 49.7981 806.772 136.28 806.772 242.588C806.772 348.897 892.67 435.398 998.26 435.398C1103.85 435.398 1189.77 348.916 1189.77 242.588C1189.77 136.28 1103.85 49.7981 998.26 49.7981Z" fill="#EEFFFF"/>
<path d="M8.71411 33.7252L32.1019 9.62122C27.9497 12.0665 24.094 14.9922 20.6056 18.3109L17.1456 21.877C13.9255 25.4722 11.0868 29.4459 8.71411 33.7252Z" fill="#EEFFFF"/>
<path d="M1.73712 52.8803L50.6875 2.43076C49.3317 2.70731 48.0042 3.04209 46.6766 3.40598L2.68334 48.7466C2.33026 50.1148 2.00546 51.483 1.73712 52.8803Z" fill="#EEFFFF"/>
<path d="M0.514587 65.7038C0.514587 65.8348 0.514587 65.9803 0.514587 66.1113L63.5456 1.16443C63.4185 1.16443 63.2772 1.16443 63.1501 1.16443C62.2321 1.16443 61.3283 1.19354 60.4385 1.22265L0.585184 62.9091C0.542815 63.8407 0.514587 64.7722 0.514587 65.7038Z" fill="#EEFFFF"/>
<path d="M1.49247 77.0862L74.1837 2.16875C73.3081 2.00864 72.4184 1.86309 71.5427 1.74664L1.08289 74.3643C1.19587 75.2668 1.33711 76.1838 1.49247 77.0862Z" fill="#EEFFFF"/>
<path d="M3.84173 86.591L83.3825 4.6141C82.6199 4.33754 81.8431 4.0901 81.0663 3.85721L3.10736 84.2039C3.34745 85.0044 3.58751 85.805 3.84173 86.591Z" fill="#EEFFFF"/>
<path d="M7.30159 94.9895L91.5454 8.16565C90.8675 7.81631 90.1755 7.46698 89.4835 7.1322L6.29883 92.8644C6.62366 93.5777 6.94852 94.2909 7.30159 94.9895Z" fill="#EEFFFF"/>
<path d="M11.6517 102.471L98.8048 12.6487C98.1975 12.2121 97.5902 11.79 96.9688 11.3824L10.423 100.579C10.8184 101.219 11.228 101.845 11.6517 102.471Z" fill="#EEFFFF"/>
<path d="M16.7925 109.138L105.259 17.9615C104.722 17.4666 104.186 16.9718 103.635 16.4914L15.366 107.464C15.8321 108.017 16.3123 108.584 16.7925 109.138Z" fill="#EEFFFF"/>
<path d="M22.71 115.003L110.965 24.0458C110.499 23.4781 110.019 22.9104 109.538 22.3573L21.0718 113.533C21.6085 114.028 22.145 114.523 22.71 115.003Z" fill="#EEFFFF"/>
<path d="M29.3759 120.083L115.893 30.916C115.498 30.2755 115.088 29.6497 114.665 29.0238L27.5399 118.832C28.1472 119.254 28.7545 119.676 29.3759 120.083Z" fill="#EEFFFF"/>
<path d="M36.8753 124.319L119.989 38.6596C119.665 37.9463 119.34 37.2331 118.987 36.5345L34.7993 123.3C35.4913 123.649 36.1833 123.984 36.8753 124.319Z" fill="#EEFFFF"/>
<path d="M45.307 127.594L123.181 47.3347C122.955 46.5341 122.701 45.7336 122.447 44.9476L42.9908 126.837C43.7534 127.114 44.5302 127.361 45.307 127.594Z" fill="#EEFFFF"/>
<path d="M54.8821 129.69L125.215 57.2033C125.102 56.2863 124.96 55.3693 124.805 54.4669L52.2269 129.268C53.1026 129.428 53.9923 129.574 54.8821 129.69Z" fill="#EEFFFF"/>
<path d="M63.1299 130.258C64.1044 130.258 65.0647 130.229 66.011 130.185L125.681 68.6877C125.723 67.6979 125.751 66.7081 125.751 65.7183C125.751 65.631 125.751 65.5582 125.751 65.4709L62.8898 130.258C62.9604 130.243 63.0451 130.258 63.1299 130.258Z" fill="#EEFFFF"/>
<path d="M79.7954 127.929L123.506 82.8793C123.873 81.5111 124.198 80.1283 124.481 78.731L75.7702 128.933C77.126 128.642 78.4678 128.307 79.7954 127.929Z" fill="#EEFFFF"/>
<path d="M117.306 98.0753L94.5256 121.553C103.96 115.906 111.826 107.798 117.306 98.0753Z" fill="#EEFFFF"/>
<path d="M656.317 110.17L641.911 123.414L627.496 110.17L613.09 123.414L598.684 110.17L585.978 121.851L573.263 110.17L558.856 123.414L544.442 110.17L530.035 123.414L515.629 110.17L501.328 123.317L502.923 124.79L515.629 113.109L530.035 126.352L544.442 113.109L558.856 126.352L573.263 113.109L585.978 124.798L598.684 113.109L613.09 126.352L627.496 113.109L641.911 126.352L656.317 113.109L669.032 124.79L670.618 123.317L656.317 110.17Z" fill="#EEFFFF"/>
<path d="M942.41 282.45L920.3 304.57" stroke="#EEFFFF" stroke-width="2" stroke-miterlimit="10"/>
<path d="M942.41 304.57L920.3 282.45" stroke="#EEFFFF" stroke-width="2" stroke-miterlimit="10"/>
<path d="M942.41 208.45L920.3 230.57" stroke="#EEFFFF" stroke-width="2" stroke-miterlimit="10"/>
<path d="M942.41 230.57L920.3 208.45" stroke="#EEFFFF" stroke-width="2" stroke-miterlimit="10"/>
<path d="M942.41 245.45L920.3 267.57" stroke="#EEFFFF" stroke-width="2" stroke-miterlimit="10"/>
<path d="M942.41 267.57L920.3 245.45" stroke="#EEFFFF" stroke-width="2" stroke-miterlimit="10"/>
<path d="M717.123 22.5071L728.362 12.8406L725.054 10L710.492 22.5071L725.054 35L728.362 32.1594L717.123 22.5071Z" fill="#EEFFFF"/>
<path d="M736.754 22.5071L747.992 12.8406L744.685 10L730.122 22.5071L744.685 35L747.992 32.1594L736.754 22.5071Z" fill="#EEFFFF"/>
<path d="M756.615 22.5071L767.87 12.8406L764.546 10L750 22.5071L764.546 35L767.87 32.1594L756.615 22.5071Z" fill="#EEFFFF"/>
<path d="M677.631 22.5071L688.87 12.8406L685.563 10L671 22.5071L685.563 35L688.87 32.1594L677.631 22.5071Z" fill="#EEFFFF"/>
<path d="M697.262 22.5071L708.501 12.8406L705.193 10L690.631 22.5071L705.193 35L708.501 32.1594L697.262 22.5071Z" fill="#EEFFFF"/>
</svg>
