<svg width="657" height="294" viewBox="0 0 657 294" fill="none" xmlns="http://www.w3.org/2000/svg">
<path d="M263.044 110.63L266.471 109.425L270.425 104.126V100.513L274.38 98.3455L279.652 94.9734L285.188 97.1412L293.361 92.5648L298.897 91.8422L305.224 92.5648L310.76 90.397L313.132 94.9734L310.76 97.1412L316.823 100.513H320.25L324.205 104.126L329.477 105.812L332.113 104.126V100.513H337.913L344.767 104.126H351.622H357.949L361.376 110.63L362.958 114.243L365.857 119.301L367.966 124.118V127.972L371.657 130.862L373.766 136.643L377.984 139.292L381.675 143.387L383.257 147.241L386.157 148.927L390.902 149.89L399.865 147.241V153.262L395.911 159.284L392.22 164.583L387.211 168.919L381.675 174.699L376.93 179.517L373.766 184.816L375.348 191.319L377.984 194.45V199.749V204.566L375.348 208.661L370.339 209.865L367.966 212.997L364.539 216.61L365.857 222.631L364.539 225.281L360.849 227.689L359.003 229.857V232.266L358.212 235.156L351.885 242.141L346.086 245.754L341.077 247.922L338.44 245.754L335.013 247.922H330.532L328.686 245.754V242.141L326.577 237.806L322.359 233.229V229.857L320.778 222.631L318.405 216.61L314.978 211.792V207.457L316.823 203.362L318.405 198.545V194.45V191.319L316.823 187.706L314.978 182.407L313.132 180.48L310.76 177.108V173.254V167.473V164.583L307.069 161.934H302.06L299.951 159.284L296.524 157.598L292.042 159.284L286.506 160.729H279.652L272.798 161.934L268.316 160.729L261.725 155.912L259.88 153.262L257.507 149.89L255.398 147.241L254.08 145.555V142.424L252.235 140.015L254.08 137.125V132.066V129.658V126.767V123.395L257.507 119.301L259.88 114.243L263.044 110.63Z" stroke="#EEFFFF" stroke-width="3" stroke-dasharray="2 2"/>
<path d="M394.856 201.435L389.847 206.493L384.838 209.143V215.405L382.466 219.982V224.799L384.838 227.448H389.847L392.747 224.799V219.982L396.174 212.274L397.756 206.493V201.435L396.174 199.027L394.856 201.435Z" stroke="#EEFFFF" stroke-width="3" stroke-dasharray="2 2"/>
<path d="M581.239 265.987L583.085 261.892H587.303L589.412 263.337L587.303 265.987L583.085 267.432L581.239 265.987Z" stroke="#EEFFFF" stroke-width="3" stroke-dasharray="2 2"/>
<path d="M555.667 242.864L549.077 245.513H540.377L536.686 247.44L532.732 249.367L530.887 247.44V245.513L532.732 240.214V232.988V225.522L535.368 221.186L544.859 216.128H549.077L555.667 210.106L557.513 207.939L560.94 204.566L566.476 202.88L570.167 204.566L572.012 202.158L575.439 199.99L581.766 198.304C587.461 197.533 586.951 199.749 585.984 200.953L583.085 204.566L585.984 206.493L592.839 210.106L597.584 204.566V200.953L600.484 197.1L601.802 200.953L605.229 204.566V211.07L607.602 213.96L611.556 221.186L615.51 225.522V229.857L613.401 237.806L609.447 242.864L605.229 245.513L601.802 251.535L597.584 254.666H593.63L591.784 256.352L589.148 257.797L585.984 256.352H581.766L578.603 254.666V251.535L577.285 249.367L574.649 245.513L572.012 247.44L568.849 242.864L565.422 241.659H562.522L555.667 242.864Z" stroke="#EEFFFF" stroke-width="3" stroke-dasharray="2 2"/>
<path d="M624.738 273.935H618.938C618.938 272.201 621.047 270.001 622.101 269.118L628.692 265.987L634.492 264.301L639.501 261.169V264.301L636.337 265.987L634.492 269.118H631.855L628.692 272.008L624.738 273.935Z" stroke="#EEFFFF" stroke-width="3" stroke-dasharray="2 2"/>
<path d="M646.882 262.855H643.455L644.773 259.483V256.834L648.464 255.389L650.046 250.331L651.627 253.944L654 256.834L650.046 259.483L646.882 262.855Z" stroke="#EEFFFF" stroke-width="3" stroke-dasharray="2 2"/>
<path d="M172.62 290.796L165.502 287.183H160.493L153.639 284.533L150.212 279.475L145.73 273.694L147.576 271.527V268.395L145.73 265.264L142.039 260.929V256.593L140.721 245.032L138.876 234.674V225.04V216.128L133.603 210.588L127.013 206.734L122.795 201.435L118.577 195.173L114.886 187.224L111.986 186.02V180.48L114.886 178.312L111.986 175.181L114.886 170.123L118.577 164.824L120.422 162.415V159.043L118.577 153.262V151.576L120.422 153.262L122.795 151.576L125.431 148.686H128.331L130.967 145.555H133.603L134.922 149.89L133.603 153.262L130.967 149.89L136.767 146.759H140.721L143.094 148.686L147.312 149.89L152.321 148.686L155.484 149.89L161.548 156.635L164.184 159.043H168.402L174.465 160.729L177.102 164.824L178.947 168.437V171.327L182.111 173.013L185.01 175.181H188.701L190.547 176.385L194.237 178.312H199.773L204.255 180.48L209.264 183.13L212.164 184.334V187.224V191.319L207.946 197.581L204.255 201.435V206.734V214.201L199.773 221.186L196.083 222.39L190.547 225.04L186.592 228.412V231.784L185.01 238.287L180.529 245.032L177.102 247.922H173.938H171.038L172.62 250.571V254.425L169.193 256.593H165.502V260.929H160.493V263.578L162.602 265.264L160.493 269.6V271.527V273.694L162.602 276.585V279.475L160.493 282.365L162.602 284.533L160.493 290.796H164.184L167.348 292L172.62 290.796Z" stroke="#EEFFFF" stroke-width="3" stroke-dasharray="2 2"/>
<path d="M613.665 190.355L619.465 195.414L617.62 197.1L613.665 195.414L609.184 191.801L606.547 190.355H603.647L601.802 193.005L596.53 191.801L593.63 190.355H590.993L593.63 186.743L590.993 184.575L583.612 181.925L579.657 180.721V178.312L577.021 174.218H583.612V176.145L586.512 180.721L589.148 178.312L593.63 176.145L598.375 178.312L606.547 180.721L612.083 184.575L613.665 190.355Z" stroke="#EEFFFF" stroke-width="3" stroke-dasharray="2 2"/>
<path d="M539.059 163.138L533.787 166.751L528.514 169.159L529.569 174.699L532.205 178.553L539.059 180.962H544.332V178.553L548.286 173.495L549.868 171.568V168.196L548.286 165.306L549.868 161.211L548.286 158.802H544.332L539.059 163.138Z" stroke="#EEFFFF" stroke-width="3" stroke-dasharray="2 2"/>
<path d="M535.105 186.743L540.905 189.874L538.005 191.319L532.205 189.874H527.723H522.451L521.133 186.743H525.614H530.096H535.105Z" stroke="#EEFFFF" stroke-width="3" stroke-dasharray="2 2"/>
<path d="M521.396 179.276V182.889C521.396 185.779 517.706 185.378 515.86 184.816L512.169 181.203L508.742 174.458L503.47 167.473L498.988 163.62V160.247L507.688 163.62L510.324 167.473L515.86 171.086V173.495L521.396 179.276Z" stroke="#EEFFFF" stroke-width="3" stroke-dasharray="2 2"/>
<path d="M549.868 138.329L551.186 133.512C551.713 131.585 553.339 132.709 554.086 133.512V138.329L556.986 140.497L560.149 145.073L564.631 149.89L566.476 154.467V159.766H562.786L560.149 157.116L556.986 151.095L554.086 145.073L549.868 138.329Z" stroke="#EEFFFF" stroke-width="3" stroke-dasharray="2 2"/>
<path d="M511.115 165.547L508.742 159.043L504.261 152.781V145.314L507.424 148.204V151.336L508.742 153.985L511.115 156.635L515.597 159.043L517.442 163.138V168.919H515.597L511.115 165.547Z" stroke="#EEFFFF"/>
<path d="M488.443 127.49L486.071 123.395L477.898 124.6L476.053 129.417L471.835 132.066L463.926 138.811L462.608 142.664V150.131C461.975 154.756 458.478 153.985 456.808 153.022L452.063 144.351L446.263 132.066V126.045H442.836H439.145V122.191H435.191L430.709 116.41L427.809 118.578L420.428 116.41H413.837L409.883 113.52L400.656 112.556L396.438 107.98L393.538 105.812L391.693 107.98L394.856 111.352L396.438 116.41H400.656L403.556 119.782L408.301 116.41L410.937 118.578L416.474 122.191V126.045L412.256 132.066L406.719 134.475L400.656 137.606L394.856 140.497L390.375 144.351H384.838L382.202 140.497V136.161L379.302 132.066L374.293 127.49V123.395L366.385 114.965L364.012 109.184L361.112 111.352L357.949 103.404H362.694L364.012 97.6229V92.3239L359.53 93.7691L353.731 92.3239H347.404L343.977 86.0615V83.8937H340.813L337.65 86.0615L339.231 89.4336L337.65 92.3239L333.959 90.6379L335.277 88.2292L330.795 86.0615L328.95 79.799L324.205 77.1495L317.35 72.814C314.398 70.309 315.241 73.0548 316.032 74.7409L319.459 78.3538C322.184 80.2005 327.21 83.8937 325.523 83.8937C323.836 83.8937 323.941 87.5869 324.205 89.4336L319.459 83.8937L312.078 78.3538L308.387 75.9452L301.797 78.3538H298.106L295.733 82.2076L290.197 86.0615V90.6379L283.606 92.3239H277.543L272.798 89.4336L274.643 78.3538H285.452L287.824 75.9452V70.8871L283.606 66.5515L290.197 65.3472L295.733 62.4568L303.115 57.1578H306.015L308.387 54.99V50.4136L311.287 48.2459V51.3771L314.714 50.4136V47.0415L312.078 45.3555L308.387 47.0415L304.433 45.3555V39.093L316.032 31.1445L324.205 25.6047L330.795 22.2326H342.131L348.985 25.6047L359.53 26.809C362.905 29.314 360.936 30.7431 359.53 31.1445H355.312L348.985 29.2176L355.312 34.0349H359.53L362.694 31.1445L366.385 29.2176L367.966 26.809L372.448 29.2176L379.302 26.809H388.266L397.493 25.6047H403.292L400.129 22.2326L401.447 19.8239H406.983L410.674 22.2326L416.21 19.8239L420.428 17.4153H426.228V14.7658L434.927 12.8389H440.463L443.363 10.912H448.372L453.381 12.8389H460.763L462.608 14.7658L460.763 17.4153L470.517 18.6196H472.626H477.371H481.853H490.289L499.779 22.2326H505.315H509.797L511.115 18.6196L519.815 19.8239L530.096 22.2326H539.059H545.123L551.977 25.6047H564.895L567.267 24.1595H573.594L583.348 25.6047L592.048 28.0133L597.584 29.9402H603.648L607.338 33.5532H599.693L595.739 31.1445L592.048 33.5532L597.584 35.9618V38.6113L592.048 42.2243H586.512C581.028 43.5731 582.118 45.8372 583.348 46.8007L587.83 48.4867L589.148 54.7492V61.2525H586.512L579.658 54.7492L575.176 48.4867L577.285 40.5382L575.176 38.6113L572.012 40.5382H568.585H564.895V44.6329H558.568H549.077L545.123 46.8007L542.486 52.5814L546.704 54.7492H550.922L556.722 56.917H559.886L564.895 61.2525L568.585 64.6246V67.2741L570.167 72.0914L567.267 70.6462L564.895 67.2741L561.204 62.4568H559.886L561.204 67.2741V72.0914L558.568 77.8721H554.35L551.977 79.799L550.922 82.6894V84.8572L551.977 87.2658L556.722 90.397L558.568 93.7691L556.722 96.4186H551.977L550.922 92.0831L545.123 88.4701L542.486 84.8572C539.112 86.5914 537.917 85.5797 537.741 84.8572L534.578 82.6894L530.096 87.2658L534.578 90.397H537.741L542.486 92.0831L536.423 95.696L542.486 100.754L545.123 104.367L546.704 109.425L545.123 115.929L542.486 120.746L536.423 123.395L530.096 124.6L526.669 127.49L523.242 124.6L519.815 126.767L518.233 130.621L523.242 136.161L526.669 141.46V147.482L523.242 150.131L520.869 153.022H518.233V150.131L513.751 147.482L508.479 144.351H506.633V147.482L503.997 144.351L501.888 138.811L499.779 136.161L497.143 137.606H494.507V134.475L492.661 130.621L488.443 127.49Z" stroke="#EEFFFF" stroke-width="3" stroke-dasharray="2 2"/>
<path d="M563.049 102.44L561.731 99.0681L562.522 96.9003L564.894 94.7326H568.058L571.749 92.5648L575.439 88.711L573.858 85.5797L570.958 80.5216V77.3904V73.7774L574.385 75.9452L579.13 77.3904L577.812 79.799H574.385V83.412H576.758L579.13 86.784V89.4335L580.185 92.5648V96.4186H575.439L572.54 99.0681L569.376 98.5864H567.003L564.894 97.6229L563.576 98.5864L565.685 100.754L564.894 103.645L563.049 102.44Z" stroke="#EEFFFF" stroke-width="3" stroke-dasharray="2 2"/>
<path d="M397.492 93.5282L391.165 89.6744V83.8937L384.575 77.8721V74.5L391.165 68.9601L396.174 72.5731L394.065 74.5H391.165V77.8721L396.174 80.0399H399.601L401.447 82.6894L397.492 83.8937L399.601 87.2658L401.447 90.8787L397.492 93.5282Z" stroke="#EEFFFF" stroke-width="3" stroke-dasharray="2 2"/>
<path d="M356.63 81.485L350.567 83.4119L346.876 78.5947L348.458 74.2591L353.731 70.4053L356.63 74.2591H360.848V70.4053H365.857V74.2591L370.339 76.9086L374.557 81.485L370.339 83.4119L363.748 81.485H356.63Z" stroke="#EEFFFF" stroke-width="3" stroke-dasharray="2 2"/>
<path d="M289.406 51.8588L293.888 57.8804L295.733 59.3256L293.888 61.4933L287.561 63.1794H282.552L284.134 59.3256V57.8804L287.561 54.5083L284.134 51.8588V49.691V47.2824H287.561L289.406 51.8588Z" stroke="#EEFFFF" stroke-width="3" stroke-dasharray="2 2"/>
<path d="M274.907 55.231L279.125 53.5449C282.499 52.1961 281.761 54.1069 280.97 55.231L279.125 58.8439L274.907 60.7708V55.231Z" stroke="#EEFFFF" stroke-width="3" stroke-dasharray="2 2"/>
<path d="M256.453 33.5531L262.253 31.8671H268.843L271.743 33.5531L265.943 36.6844H259.616L256.453 33.5531Z" stroke="#EEFFFF" stroke-width="3" stroke-dasharray="2 2"/>
<path d="M208.21 31.6262L210.846 27.7724C214.431 26.4236 214.449 23.6777 214.009 22.4734L210.846 17.1744L205.046 12.8389H200.564L196.083 11.1528V8.50332H205.046L210.846 5.85382L219.018 4.40863L231.936 5.85382L239.845 3.20432H255.135H265.943L272.27 5.85382L268.316 11.1528L265.943 15.2475L260.935 17.1744L256.98 19.3422L260.935 22.4734L256.98 24.4003L249.599 26.5681L244.326 27.7724L239.845 29.4585L231.936 31.6262L224.554 35.2392L219.018 42.2242H214.009L208.21 38.3704V31.6262Z" stroke="#EEFFFF" stroke-width="3" stroke-dasharray="2 2"/>
<path d="M179.738 7.05814L174.729 11.1528L181.056 13.3206L186.065 11.1528L192.392 9.22591L203.992 7.05814L211.637 2L197.928 3.44518H188.701V7.05814H186.065H179.738Z" stroke="#EEFFFF" stroke-width="3" stroke-dasharray="2 2"/>
<path d="M167.348 17.6561H162.075L156.803 20.3056L162.075 23.196H167.348H173.411L178.156 28.495V30.181H173.411L170.248 33.5531L173.411 37.1661L179.738 38.8521L183.692 35.48V31.8671H185.801C191.707 33.2159 191.601 31.3051 190.81 30.181L187.647 26.3272L183.692 21.9917L179.738 20.3056H176.575L173.411 18.8604L167.348 17.6561Z" stroke="#EEFFFF" stroke-width="3" stroke-dasharray="3 3"/>
<path d="M111.195 15.9701L107.241 17.6561L102.496 19.3422L104.077 21.9917L107.241 19.3422H112.513L114.622 21.9917L111.195 25.8455H115.941H119.104H123.322L128.067 24.8821L133.604 24.1595V21.9917V19.3422H131.758H129.386L127.013 17.6561L124.377 19.3422L120.949 17.6561L115.941 15.9701H111.195Z" stroke="#EEFFFF" stroke-width="3" stroke-dasharray="2 2"/>
<path d="M185.801 64.3837L190.81 67.2741L185.801 68.7193H180.793L178.42 67.2741L180.793 65.588L185.801 61.4934V64.3837Z" stroke="#EEFFFF" stroke-width="3" stroke-dasharray="3 3"/>
<path d="M134.922 88.9518L144.149 82.4485L149.948 80.7624L153.639 76.6678L159.966 73.5365H162.339V76.6678H166.293L172.356 73.5365L166.293 71.1279L168.402 66.0697H163.92L166.293 62.2159H173.675H179.474L185.274 59.5664L189.228 56.1943L185.274 54.99L182.374 51.1362L180.792 42.9468L173.675 46.5598L171.038 42.9468V40.2973L162.339 37.8887L157.857 40.2973L155.221 45.3555V48.7276L149.948 53.0631L145.467 54.99V58.1212L141.512 61.0116L138.876 58.1212L140.458 52.3405L134.922 51.1362L131.495 48.7276L126.222 45.3555L129.649 40.2973L136.767 37.8887L141.512 35.48L147.576 33.794L151.266 31.8671L157.857 33.794L156.275 36.9252L149.948 35.48L153.639 29.9402H159.966L163.92 27.2907V24.6412H159.966L153.639 27.2907L151.266 24.6412L149.948 20.7874L145.467 22.4734V24.6412L141.512 27.2907V24.6412H138.876V27.2907H134.922L129.649 28.495L126.222 27.2907L119.895 28.495V29.9402L112.777 28.495L105.396 24.6412H96.9596H90.1053L79.2967 27.2907L71.9152 24.6412L53.7251 22.4734H46.0799L35.7985 24.6412L32.3714 26.0864C30.7018 26.0864 27.6789 26.8571 28.9443 29.9402L24.7263 31.8671H19.4538C18.9265 32.5897 18.5574 34.3239 21.2991 35.48L17.3448 37.8887H12.5995L10.2269 41.7425L6.79976 42.9468L10.2269 45.3555L1 52.3405L17.3448 46.5598L26.308 42.9468H28.9443L37.3803 40.2973L44.7618 42.9468L50.2979 46.5598L52.9342 49.691C52.0554 52.5814 50.2979 59.1329 50.2979 62.2159C55.0432 62.2159 58.2067 66.7923 55.5704 67.7558C53.4614 68.5266 48.3647 74.0183 46.0799 76.6678L40.0165 84.1345L41.8619 96.6595L46.0799 101.958V106.535L47.9253 113.279L50.2979 118.337L52.9342 121.228V113.279L50.2979 108.703V105.09H52.9342V110.63L57.1522 116.651L62.1611 123.877V129.417L73.7606 136.161H84.3056L88.26 140.497L95.1142 142.905H97.7505L100.123 147L104.868 152.54L111.459 155.671L116.468 152.54H111.459L106.186 147V137.847H100.123L97.7505 136.161L100.123 128.213C101.09 126.928 101.705 124.744 96.4324 126.286L92.7416 130.862L86.6782 132.789L82.4602 129.417L79.5603 123.877L82.4602 114.965L84.3056 110.63L92.7416 106.535L100.123 108.703L106.186 105.09L110.141 106.535L114.886 108.703V114.965L116.468 116.651L119.895 114.965V110.63L117.786 105.09L122.795 101.958L127.013 98.8272L133.604 96.6595V91.3604L134.922 88.9518Z" stroke="#EEFFFF" stroke-width="3" stroke-dasharray="2 2"/>
<path d="M136.767 132.548H129.385L131.495 128.694H134.131L141.512 130.14L136.767 132.548Z" stroke="#EEFFFF" stroke-width="3" stroke-dasharray="2 2"/>
<path d="M118.577 121.709H109.877L112.25 123.395L116.731 125.563L120.686 128.213L128.858 127.008L126.222 125.563L118.577 121.709Z" stroke="#EEFFFF" stroke-width="3" stroke-dasharray="2 2"/>
<path d="M114.886 71.1279H122.268L117.522 74.7408L114.886 80.0398L116.204 82.2076L119.368 80.0398L122.268 73.5365H127.013V77.3903L132.549 74.7408V71.1279H129.649L127.013 69.6827L124.377 67.0332H117.522L114.886 71.1279Z" stroke="#EEFFFF" stroke-width="3" stroke-dasharray="2 2"/>
<path d="M161.021 14.284L173.938 16.4518L176.838 14.284H169.193L164.448 12.1163L161.021 14.284Z" stroke="#EEFFFF" stroke-width="3" stroke-dasharray="2 2"/>
<path d="M175.256 4.89035L173.411 8.26244H169.72L166.029 7.05812L169.72 4.89035H175.256Z" stroke="#EEFFFF" stroke-width="3" stroke-dasharray="2 2"/>
<path d="M320.777 52.0997L323.15 48.005L324.732 45.1146L326.05 42.9468L323.15 40.0565V37.407L328.686 35.7209L332.113 30.9037L335.804 33.5532L330.795 37.407L332.113 41.7425H341.077L344.504 42.9468L341.077 45.1146H335.804V48.005H332.113V52.0997L328.686 54.2674H326.05L320.777 55.9535L318.141 54.2674H312.605L316.032 52.0997H320.777Z" stroke="#EEFFFF" stroke-width="3" stroke-dasharray="2 2"/>
<path d="M549.868 179.035L552.241 173.495C550.975 171.761 552.768 170.043 553.822 169.4C553.822 168.244 560.677 168.919 564.104 169.4C564.104 173.254 559.183 171.97 556.722 170.846L554.877 172.532L555.668 174.94H559.622L556.722 177.108L558.304 180.48L556.722 182.166L554.877 179.035L553.822 180.48V184.816L549.868 184.093V179.035Z" stroke="#EEFFFF" stroke-width="3" stroke-dasharray="2 2"/>
</svg>
